<?xml version="1.0" encoding="UTF-8" standalone="no"?>
<svg
   xmlns:dc="http://purl.org/dc/elements/1.1/"
   xmlns:cc="http://creativecommons.org/ns#"
   xmlns:rdf="http://www.w3.org/1999/02/22-rdf-syntax-ns#"
   xmlns:svg="http://www.w3.org/2000/svg"
   xmlns="http://www.w3.org/2000/svg"
   viewBox="0 0 960.26935 768.21198"
   height="768.21198"
   width="960.26935"
   xml:space="preserve"
   id="svg2"
   version="1.1"><metadata
     id="metadata8"><rdf:RDF><cc:Work
         rdf:about=""><dc:format>image/svg+xml</dc:format><dc:type
           rdf:resource="http://purl.org/dc/dcmitype/StillImage" /></cc:Work></rdf:RDF></metadata><defs
     id="defs6"><clipPath
       id="clipPath18"
       clipPathUnits="userSpaceOnUse"><path
         id="path16"
         d="M 0,576.159 H 720.202 V 0 H 0 Z" /></clipPath></defs><g
     transform="matrix(1.3333333,0,0,-1.3333333,0,768.212)"
     id="g10"><g
       id="g12"><g
         clip-path="url(#clipPath18)"
         id="g14"><g
           transform="translate(620.4048,82.1738)"
           id="g20"><path
             id="path22"
             style="fill:#231f20;fill-opacity:1;fill-rule:nonzero;stroke:none"
             d="m 0,0 c 0,-9.941 -8.059,-18 -18,-18 h -477.132 c -9.941,0 -18,8.059 -18,18 v 420.566 c 0,9.941 8.059,18 18,18 H -18 c 9.941,0 18,-8.059 18,-18 z" /></g><g
           transform="translate(142.293,452.8906)"
           id="g24"><path
             id="path26"
             style="fill:#f1be1a;fill-opacity:1;fill-rule:nonzero;stroke:none"
             d="M 0,0 H 4.91 V 29.636 H 0 v 5.719 h 29.289 v -10.63 h -6.47 v 4.217 H 12.478 V 17.157 H 25.823 V 11.092 H 12.478 V 0 h 5.43 V -5.662 L 0,-5.662 Z" /></g><g
           transform="translate(197.6318,453.1792)"
           id="g28"><path
             id="path30"
             style="fill:#f1be1a;fill-opacity:1;fill-rule:nonzero;stroke:none"
             d="m 0,0 c 7.395,0 13.46,6.355 13.46,14.847 0,8.088 -6.065,14.269 -13.46,14.269 -7.395,0 -13.46,-6.181 -13.46,-14.269 C -13.46,6.355 -7.395,0 0,0 m 0,35.76 c 12.132,0 21.259,-9.186 21.259,-20.913 C 21.259,2.773 12.132,-6.644 0,-6.644 c -12.132,0 -21.259,9.417 -21.259,21.491 0,11.727 9.127,20.913 21.259,20.913" /></g><g
           transform="translate(244.0728,469.0083)"
           id="g32"><path
             id="path34"
             style="fill:#f1be1a;fill-opacity:1;fill-rule:nonzero;stroke:none"
             d="m 0,0 c 3.986,0 6.586,2.369 6.586,6.759 0,2.715 -0.982,4.737 -3.235,5.661 -1.098,0.52 -2.658,0.751 -4.622,0.751 H -6.817 V 0 Z m -19.295,-16.118 h 4.91 v 29.636 h -4.91 v 5.719 h 18.082 c 3.004,0 5.488,-0.173 7.799,-0.866 4.622,-1.56 7.568,-5.2 7.568,-10.976 0,-5.777 -2.946,-9.764 -7.741,-11.381 v -0.116 l 0.692,-0.52 C 7.51,-5.026 8.03,-5.488 8.435,-6.239 l 4.736,-8.55 c 0.636,-1.098 1.387,-1.329 2.773,-1.329 h 1.329 v -5.661 h -4.795 c -3.351,0 -4.448,0.693 -5.719,3.062 L 0.924,-8.146 c -0.866,1.56 -1.617,2.08 -3.986,2.08 h -3.755 v -10.052 h 4.737 v -5.661 h -17.215 z" /></g><g
           transform="translate(285.6025,482.5264)"
           id="g36"><path
             id="path38"
             style="fill:#f1be1a;fill-opacity:1;fill-rule:nonzero;stroke:none"
             d="M 0,0 H -4.91 V 5.719 H 12.536 V 0 H 7.568 v -19.873 c 0,-2.311 0.52,-4.39 1.387,-5.835 1.443,-2.311 4.274,-3.639 7.741,-3.639 3.466,0 6.123,1.213 7.683,3.697 0.924,1.56 1.387,3.524 1.387,5.835 V 0 H 20.855 V 5.719 H 38.244 V 0 h -4.911 v -19.873 c 0,-3.986 -1.097,-7.683 -3.004,-10.283 -3.004,-3.928 -8.087,-5.835 -13.633,-5.835 -5.835,0 -10.803,2.08 -13.634,5.777 C 0.924,-27.499 0,-24.032 0,-19.873 Z" /></g><g
           transform="translate(335.856,460.4585)"
           id="g40"><path
             id="path42"
             style="fill:#f1be1a;fill-opacity:1;fill-rule:nonzero;stroke:none"
             d="m 0,0 v -3.062 c 0,-2.6 3.351,-4.217 7.221,-4.217 4.16,0 7.106,1.791 7.106,5.084 0,4.101 -4.68,5.487 -9.416,7.336 -5.489,2.138 -10.861,4.506 -10.861,11.901 0,8.261 6.643,11.438 13.749,11.438 6.47,0 12.998,-2.426 12.998,-7.221 v -5.373 h -6.875 v 2.774 c 0,2.079 -3.061,3.177 -6.123,3.177 -3.351,0 -6.124,-1.387 -6.124,-4.506 0,-3.813 3.871,-5.026 8.088,-6.702 C 15.944,8.492 22.01,5.95 22.01,-1.675 c 0,-8.377 -7.048,-12.248 -14.789,-12.248 -6.817,0 -14.096,3.062 -14.096,9.243 l 0,4.68 z" /></g><g
           transform="translate(364.0425,452.8906)"
           id="g44"><path
             id="path46"
             style="fill:#f1be1a;fill-opacity:1;fill-rule:nonzero;stroke:none"
             d="M 0,0 H 4.91 V 29.636 H 0 v 5.719 H 30.444 V 24.783 h -6.469 v 4.506 H 12.479 V 18.024 H 25.996 V 11.958 H 12.479 V 0.404 h 12.362 v 4.622 h 6.47 V -5.662 L 0,-5.662 Z" /></g><g
           transform="translate(414.5269,488.2456)"
           id="g48"><path
             id="path50"
             style="fill:#f1be1a;fill-opacity:1;fill-rule:nonzero;stroke:none"
             d="m 0,0 h 16.002 v -5.719 h -4.795 l 5.315,-23.397 c 0.173,-0.866 0.29,-1.733 0.347,-2.426 l 0.115,-1.156 h 0.232 l 0.173,1.156 c 0.174,0.693 0.231,1.56 0.462,2.426 L 25.534,0 h 6.067 l 7.682,-29.116 c 0.232,-0.866 0.347,-1.733 0.521,-2.426 0.057,-0.405 0.115,-0.809 0.115,-1.156 h 0.231 l 0.116,1.156 c 0.057,0.693 0.173,1.56 0.346,2.426 l 5.315,23.397 H 41.132 V 0 H 57.135 V -5.719 H 53.38 l -8.724,-35.298 h -8.492 l -6.875,25.881 c -0.23,0.867 -0.288,1.733 -0.462,2.484 l -0.173,1.271 H 28.48 c 0,-0.404 -0.057,-0.866 -0.115,-1.271 -0.115,-0.866 -0.289,-1.675 -0.519,-2.484 L 20.971,-41.017 H 12.479 L 3.755,-5.719 H 0 Z" /></g><g
           transform="translate(475.9292,452.8906)"
           id="g52"><path
             id="path54"
             style="fill:#f1be1a;fill-opacity:1;fill-rule:nonzero;stroke:none"
             d="M 0,0 H 4.91 V 29.636 H 0 v 5.719 H 17.446 V 29.636 H 12.479 V 0 h 4.967 V -5.662 L 0,-5.662 Z" /></g><g
           transform="translate(507.6997,452.8906)"
           id="g56"><path
             id="path58"
             style="fill:#f1be1a;fill-opacity:1;fill-rule:nonzero;stroke:none"
             d="M 0,0 H 4.911 V 29.289 H -2.83 V 23.108 H -9.243 V 35.355 H 26.689 V 23.108 h -6.412 v 6.181 H 12.479 V 0 h 4.967 V -5.662 L 0,-5.662 Z" /></g><g
           transform="translate(539.4106,452.8906)"
           id="g60"><path
             id="path62"
             style="fill:#f1be1a;fill-opacity:1;fill-rule:nonzero;stroke:none"
             d="M 0,0 H 4.91 V 29.636 H 0 v 5.719 H 17.446 V 29.636 H 12.479 V 17.793 H 31.138 V 29.636 H 26.17 v 5.719 h 17.446 v -5.719 h -4.91 V 0 h 4.91 V -5.662 H 26.17 V 0 h 4.968 V 11.727 H 12.479 V 0 h 4.967 V -5.662 L 0,-5.662 Z" /></g><g
           transform="translate(585.8696,109.8877)"
           id="g64"><path
             id="path66"
             style="fill:#f1be1a;fill-opacity:1;fill-rule:nonzero;stroke:none"
             d="m 0,0 c 0,-7.953 -6.447,-14.4 -14.4,-14.4 h -417.665 c -7.953,0 -14.4,6.447 -14.4,14.4 v 289.826 c 0,7.952 6.447,14.4 14.4,14.4 H -14.4 c 7.953,0 14.4,-6.448 14.4,-14.4 z" /></g><g
           transform="translate(184.4355,145.6064)"
           id="g68"><path
             id="path70"
             style="fill:#010101;fill-opacity:1;fill-rule:nonzero;stroke:none"
             d="m 0,0 c 1.671,0 2.925,0.189 4.141,0.76 2.318,1.178 3.686,3.838 3.686,7.485 0,4.065 -1.634,6.649 -4.18,7.713 C 2.469,16.451 1.368,16.527 0,16.527 H -1.976 V 0 Z m -11.816,-0.38 h 3.039 v 17.287 h -3.039 v 4.94 H 0.152 c 2.127,0 3.875,-0.076 5.585,-0.571 5.395,-1.519 9.118,-6.154 9.118,-12.994 0,-6.268 -3.153,-10.866 -8.168,-12.689 C 4.711,-5.129 2.659,-5.319 0.19,-5.319 h -12.006 z" /></g><g
           transform="translate(205.146,162.5137)"
           id="g72"><path
             id="path74"
             style="fill:#010101;fill-opacity:1;fill-rule:nonzero;stroke:none"
             d="M 0,0 H -3.04 V 4.939 H 9.84 V 0 H 6.801 v -11.854 c 0,-1.216 0.266,-2.28 0.684,-3.001 0.722,-1.216 2.203,-1.938 4.065,-1.938 1.786,0 3.078,0.569 3.951,1.899 0.495,0.798 0.723,1.787 0.723,3.04 V 0 h -3.04 v 4.939 h 12.88 V 0 h -3.04 v -11.854 c 0,-2.736 -0.836,-5.282 -2.241,-7.067 -2.128,-2.584 -5.661,-3.762 -9.271,-3.762 -3.913,0 -7.257,1.369 -9.232,3.648 C 0.646,-17.211 0,-14.741 0,-11.854 Z" /></g><g
           transform="translate(234.4819,145.2266)"
           id="g76"><path
             id="path78"
             style="fill:#010101;fill-opacity:1;fill-rule:nonzero;stroke:none"
             d="M 0,0 H 3.04 V 17.287 H 0 v 4.94 h 9.917 l 8.51,-14.401 c 0.342,-0.569 0.608,-1.215 0.798,-1.785 l 0.342,-0.988 h 0.152 l -0.114,1.064 c -0.114,0.608 -0.114,1.367 -0.114,1.976 v 9.194 h -3.192 v 4.94 h 13.033 v -4.94 h -3.04 V -4.939 H 19.453 L 10.904,9.385 C 10.6,9.954 10.296,10.601 10.106,11.17 L 9.765,12.158 H 9.612 L 9.727,11.094 C 9.84,10.486 9.84,9.727 9.84,9.118 V 0 h 3.192 V -4.939 H 0 Z" /></g><g
           transform="translate(281.4854,167.9092)"
           id="g80"><path
             id="path82"
             style="fill:#010101;fill-opacity:1;fill-rule:nonzero;stroke:none"
             d="M 0,0 C 4.977,0 10.942,-1.862 10.942,-5.319 V -9.727 H 4.863 v 1.976 c 0,1.368 -2.013,2.052 -4.483,2.052 -4.978,0 -7.903,-2.736 -7.903,-7.865 0,-5.053 2.925,-8.815 8.283,-8.815 1.823,0 4.711,0.456 4.711,1.976 v 1.862 H 1.102 v 4.938 H 11.55 v -9.042 c 0,-4.065 -7.675,-5.433 -11.626,-5.433 -8.359,0 -14.476,6.003 -14.476,14.21 C -14.552,-5.699 -8.511,0 0,0" /></g><g
           transform="translate(297.0669,145.2266)"
           id="g84"><path
             id="path86"
             style="fill:#010101;fill-opacity:1;fill-rule:nonzero;stroke:none"
             d="M 0,0 H 3.04 V 17.287 H 0 v 4.94 H 20.935 V 14.21 h -5.699 v 2.697 H 9.84 v -5.509 h 7.941 V 6.079 H 9.84 V 0.38 h 5.851 v 2.697 h 5.7 V -4.939 H 0 Z" /></g><g
           transform="translate(336.2041,145.7207)"
           id="g88"><path
             id="path90"
             style="fill:#010101;fill-opacity:1;fill-rule:nonzero;stroke:none"
             d="m 0,0 c 3.989,0 7.257,3.571 7.257,8.32 0,4.56 -3.268,7.979 -7.257,7.979 -3.989,0 -7.257,-3.419 -7.257,-7.979 C -7.257,3.571 -3.989,0 0,0 M 0,22.188 C 8.321,22.188 14.286,16.109 14.286,8.32 14.286,0.342 8.321,-5.89 0,-5.89 c -8.321,0 -14.286,6.232 -14.286,14.21 0,7.789 5.965,13.868 14.286,13.868" /></g><g
           transform="translate(354.0278,145.2266)"
           id="g92"><path
             id="path94"
             style="fill:#010101;fill-opacity:1;fill-rule:nonzero;stroke:none"
             d="M 0,0 H 3.04 V 17.287 H 0 v 4.94 H 9.916 L 18.428,7.826 C 18.77,7.257 19.035,6.611 19.225,6.041 l 0.341,-0.988 h 0.153 l -0.114,1.064 c -0.114,0.608 -0.114,1.367 -0.114,1.976 v 9.194 h -3.192 v 4.94 h 13.033 v -4.94 h -3.04 V -4.939 H 19.453 L 10.904,9.385 C 10.6,9.954 10.297,10.601 10.106,11.17 L 9.765,12.158 H 9.612 L 9.727,11.094 C 9.84,10.486 9.84,9.727 9.84,9.118 V 0 h 3.191 V -4.939 H 0 Z" /></g><g
           transform="translate(395.5239,167.4531)"
           id="g96"><path
             id="path98"
             style="fill:#010101;fill-opacity:1;fill-rule:nonzero;stroke:none"
             d="M 0,0 H 12.043 V -4.939 H 8.891 l 2.507,-12.044 c 0.151,-0.647 0.227,-1.369 0.266,-1.938 l 0.076,-0.912 h 0.153 l 0.113,0.912 c 0.113,0.569 0.189,1.291 0.342,1.938 L 16.527,0 h 5.243 l 4.179,-16.983 c 0.19,-0.647 0.229,-1.369 0.342,-1.938 l 0.115,-0.912 h 0.151 l 0.076,0.912 c 0.039,0.569 0.152,1.291 0.267,1.938 l 2.506,12.044 H 26.254 V 0 H 38.297 V -4.939 H 36.018 L 30.623,-27.166 H 23.139 L 19.68,-13.26 c -0.151,0.722 -0.227,1.444 -0.342,2.014 l -0.113,0.987 h -0.153 l -0.113,-0.987 c -0.115,-0.57 -0.152,-1.292 -0.342,-2.014 L 15.158,-27.166 H 7.674 L 2.279,-4.939 H 0 Z" /></g><g
           transform="translate(450.2407,145.7207)"
           id="g100"><path
             id="path102"
             style="fill:#010101;fill-opacity:1;fill-rule:nonzero;stroke:none"
             d="M 0,0 C 3.99,0 7.258,3.571 7.258,8.32 7.258,12.88 3.99,16.299 0,16.299 -3.99,16.299 -7.258,12.88 -7.258,8.32 -7.258,3.571 -3.99,0 0,0 M 0,22.188 C 8.32,22.188 14.285,16.109 14.285,8.32 14.285,0.342 8.32,-5.89 0,-5.89 c -8.32,0 -14.285,6.232 -14.285,14.21 0,7.789 5.965,13.868 14.285,13.868" /></g><g
           transform="translate(480.9829,155.1426)"
           id="g104"><path
             id="path106"
             style="fill:#010101;fill-opacity:1;fill-rule:nonzero;stroke:none"
             d="m 0,0 c 2.127,0 3.457,1.064 3.457,3.534 0,1.254 -0.305,2.432 -1.482,3.001 -0.608,0.304 -1.483,0.456 -2.621,0.456 h -2.432 l 0,-6.991 z m -12.92,-9.916 h 3.041 V 7.371 h -3.041 v 4.94 h 12.274 c 2.089,0 3.875,-0.077 5.433,-0.533 3.305,-1.025 5.432,-3.647 5.432,-7.636 0,-3.61 -1.672,-5.965 -4.406,-7.447 V -3.381 C 6.002,-3.495 6.23,-3.609 6.42,-3.761 6.762,-4.027 7.18,-4.407 7.484,-5.015 l 2.09,-4.027 c 0.342,-0.646 0.873,-0.874 1.748,-0.874 h 0.949 v -4.939 H 7.787 c -2.164,0 -3.076,0.532 -3.836,2.013 l -3.306,6.345 c -0.456,0.874 -0.95,1.178 -2.356,1.178 h -1.367 v -4.597 h 2.849 v -4.939 H -12.92 Z" /></g><g
           transform="translate(496.6001,145.2266)"
           id="g108"><path
             id="path110"
             style="fill:#010101;fill-opacity:1;fill-rule:nonzero;stroke:none"
             d="M 0,0 H 3.041 V 16.907 H 0 v 5.32 h 12.881 v -5.32 H 9.842 V 0.38 h 5.851 v 3.989 h 5.7 V -4.939 L 0,-4.939 Z" /></g><g
           transform="translate(532.8501,145.6064)"
           id="g112"><path
             id="path114"
             style="fill:#010101;fill-opacity:1;fill-rule:nonzero;stroke:none"
             d="m 0,0 c 1.672,0 2.926,0.189 4.143,0.76 2.316,1.178 3.685,3.838 3.685,7.485 0,4.065 -1.635,6.649 -4.18,7.713 C 2.471,16.451 1.369,16.527 0,16.527 H -1.975 V 0 Z m -11.816,-0.38 h 3.041 v 17.287 h -3.041 v 4.94 H 0.152 c 2.129,0 3.875,-0.076 5.586,-0.571 5.395,-1.519 9.119,-6.154 9.119,-12.994 0,-6.268 -3.154,-10.866 -8.169,-12.689 C 4.713,-5.129 2.66,-5.319 0.191,-5.319 h -12.007 z" /></g><g
           transform="translate(225.8345,343.4312)"
           id="g116"><path
             id="path118"
             style="fill:#231f20;fill-opacity:1;fill-rule:nonzero;stroke:none"
             d="m 0,0 c -1.665,-3.092 -2.616,-10.702 -2.616,-19.263 v -90.842 c 0,-24.257 0.476,-30.678 5.232,-33.293 4.28,-2.378 14.031,-2.378 18.073,-2.378 54.221,0 57.075,45.183 57.075,67.062 0,54.695 -17.598,82.043 -66.825,82.043 C 3.092,3.329 1.427,2.616 0,0 m 33.531,-158.856 h -84.897 v 10.701 c 21.164,0 21.402,9.037 21.402,38.05 v 80.855 c 0,29.012 -0.475,38.049 -19.262,38.049 h -2.378 V 19.5 h 70.391 c 55.647,0 87.038,-34.006 87.038,-86.086 0,-53.269 -32.58,-92.27 -72.294,-92.27" /></g><g
           transform="translate(500.5034,236.4175)"
           id="g120"><path
             id="path122"
             style="fill:#231f20;fill-opacity:1;fill-rule:nonzero;stroke:none"
             d="m 0,0 v 77.763 c 0,29.013 -0.238,38.05 -21.402,38.05 v 10.701 h 70.39 V 115.813 H 46.61 c -18.787,0 -19.262,-9.037 -19.262,-38.05 V 7.372 c 0,-35.196 -34.958,-61.592 -80.379,-61.592 H -66.11 c -38.287,0 -81.093,28.299 -81.093,61.592 v 70.391 c 0,29.013 -0.476,38.05 -19.263,38.05 h -2.378 v 10.701 h 70.391 v -10.701 c -21.165,0 -21.402,-9.037 -21.402,-38.05 V 0 c 0,-24.494 25.92,-35.909 46.61,-39.714 v 96.312 c 0,29.251 -0.237,34.72 -21.402,34.72 v 10.702 h 70.39 V 91.318 h -2.378 c -18.787,0 -19.262,-5.469 -19.262,-34.72 V -40.427 C -25.684,-37.812 0,-26.397 0,0" /></g></g></g></g></svg>